name C:\Users\antoi\Documents\MyRepositories\upper-imu-dc\Results\main_tracking\Case_94\kinematics.mot
datacolumns 43
datarows 12
range 5.26000000 5.48000000
endheader 
time	clav_prot	clav_elev	scapula_abduction	scapula_elevation	scapula_upward_rot	scapula_winging	plane_elv	shoulder_elv	axial_rot	TrapeziusScapula_M/activation	TrapeziusScapula_S/activation	TrapeziusScapula_I/activation	TrapeziusClavicle_S/activation	SerratusAnterior_I/activation	SerratusAnterior_M/activation	SerratusAnterior_S/activation	Rhomboideus_S/activation	Rhomboideus_I/activation	LevatorScapulae/activation	Coracobrachialis/activation	DeltoideusClavicle_A/activation	DeltoideusScapula_P/activation	DeltoideusScapula_M/activation	LatissimusDorsi_S/activation	LatissimusDorsi_M/activation	LatissimusDorsi_I/activation	PectoralisMajorClavicle_S/activation	PectoralisMajorThorax_I/activation	PectoralisMajorThorax_M/activation	TeresMajor/activation	Infraspinatus_I/activation	Infraspinatus_S/activation	PectoralisMinor/activation	TeresMinor/activation	Subscapularis_S/activation	Subscapularis_M/activation	Subscapularis_I/activation	Supraspinatus_P/activation	Supraspinatus_A/activation	TRIlong/activation	BIC_long/activation	BIC_brevis/activation	
          5.26000000	        -39.41730271	          2.65028853	        -15.53339011	         -6.57707115	         50.68893254	         -8.19767715	         13.16119842	         78.91555003	          5.72097547	          0.04912056	          0.13458389	          0.02998500	          0.03307131	          0.11163594	          0.14078497	          0.01000000	          0.01000000	          0.01000000	          0.01000000	          0.01000000	          0.10398842	          0.01000000	          0.18550898	          0.01000000	          0.01000000	          0.01000000	          0.01310475	          0.01000000	          0.01000000	          0.01000000	          0.04156202	          0.04899806	          0.01000000	          0.01000000	          0.01000000	          0.01000000	          0.01000000	          0.02886865	          0.03303957	          0.01000000	          0.03823140	          0.01270250	
          5.28000000	        -39.53929603	          2.71333431	        -15.48337224	         -6.56430936	         51.02279751	         -8.30969714	         13.55165099	         79.13383234	          5.41064195	          0.04977231	          0.13579730	          0.03030134	          0.03330170	          0.11251843	          0.14292321	          0.01000000	          0.01000000	          0.01000000	          0.01000000	          0.01000000	          0.10620658	          0.01000000	          0.18628717	          0.01000000	          0.01000000	          0.01000000	          0.01337925	          0.01000000	          0.01000000	          0.01000000	          0.04205234	          0.04942623	          0.01000000	          0.01000000	          0.01000000	          0.01000000	          0.01000000	          0.02936161	          0.03391032	          0.01000000	          0.03894291	          0.01304046	
          5.30000000	        -39.66135707	          2.77285036	        -15.43839349	         -6.55289519	         51.34888498	         -8.41923565	         13.94135877	         79.34928033	          5.07784359	          0.05050404	          0.13708018	          0.03070008	          0.03352778	          0.11357022	          0.14514452	          0.01000000	          0.01000000	          0.01000000	          0.01000000	          0.01000000	          0.10863284	          0.01000000	          0.18722780	          0.01000000	          0.01000000	          0.01000000	          0.01369096	          0.01000000	          0.01000000	          0.01000000	          0.04255109	          0.04985551	          0.01000000	          0.01000000	          0.01000000	          0.01000000	          0.01000000	          0.02991377	          0.03490740	          0.01000000	          0.03975390	          0.01343174	
          5.32000000	        -39.78436051	          2.82830292	        -15.39853292	         -6.54339521	         51.66869154	         -8.52666159	         14.33102006	         79.56352886	          4.72918245	          0.05128863	          0.13842338	          0.03113669	          0.03375563	          0.11473577	          0.14744957	          0.01000000	          0.01000000	          0.01000000	          0.01000000	          0.01000000	          0.11130723	          0.01000000	          0.18825021	          0.01000000	          0.01000000	          0.01000000	          0.01406342	          0.01000000	          0.01000000	          0.01000000	          0.04300417	          0.05023875	          0.01000000	          0.01000000	          0.01000000	          0.01000000	          0.01000000	          0.03053876	          0.03607740	          0.01000000	          0.04069393	          0.01390699	
          5.34000000	        -39.90900276	          2.87964785	        -15.36375175	         -6.53600788	         51.98367362	         -8.63245436	         14.72166115	         79.77847350	          4.37254432	          0.05210736	          0.13981236	          0.03157742	          0.03398478	          0.11594569	          0.14979430	          0.01000000	          0.01000000	          0.01000000	          0.01000000	          0.01000455	          0.11415141	          0.01000000	          0.18929187	          0.01000000	          0.01000000	          0.01000000	          0.01448765	          0.01000000	          0.01000000	          0.01000000	          0.04337453	          0.05055725	          0.01000000	          0.01000000	          0.01000000	          0.01000000	          0.01000000	          0.03121230	          0.03736669	          0.01000000	          0.04171532	          0.01445928	
          5.36000000	        -40.03572591	          2.92735995	        -15.33396502	         -6.53052575	         52.29501359	         -8.73715923	         15.11459950	         79.99600688	          4.01717848	          0.05293221	          0.14121459	          0.03198467	          0.03421240	          0.11711252	          0.15211618	          0.01000000	          0.01000000	          0.01000000	          0.01000000	          0.01025765	          0.11699832	          0.01000000	          0.19030608	          0.01000000	          0.01000000	          0.01000000	          0.01491142	          0.01000000	          0.01000000	          0.01000000	          0.04364520	          0.05082061	          0.01000000	          0.01000000	          0.01000000	          0.01000000	          0.01000000	          0.03187759	          0.03863647	          0.01000000	          0.04270866	          0.01502583	
          5.38000000	        -40.16474617	          2.97224777	        -15.30908610	         -6.52646607	         52.60355507	         -8.84131954	         15.51128743	         80.21759759	          3.67281939	          0.05373118	          0.14258682	          0.03232116	          0.03443330	          0.11812975	          0.15432988	          0.01000000	          0.01000000	          0.01000000	          0.01000000	          0.01057620	          0.11973272	          0.01000000	          0.19113830	          0.01000000	          0.01000000	          0.01000000	          0.01533158	          0.01000000	          0.01000000	          0.01000000	          0.04379394	          0.05100824	          0.01000000	          0.01000000	          0.01000000	          0.01000000	          0.01000000	          0.03251067	          0.03983991	          0.01000000	          0.04363011	          0.01560722	
          5.40000000	        -40.29602033	          3.01521608	        -15.28896136	         -6.52323318	         52.90973451	         -8.94535830	         15.91299651	         80.44397054	          3.34860730	          0.05446875	          0.14387944	          0.03255509	          0.03464531	          0.11892240	          0.15638395	          0.01000000	          0.01000000	          0.01000000	          0.01000000	          0.01092448	          0.12226922	          0.01000000	          0.19169245	          0.01000000	          0.01000000	          0.01000000	          0.01574533	          0.01000000	          0.01000000	          0.01000000	          0.04381437	          0.05111560	          0.01000000	          0.01000000	          0.01000000	          0.01000000	          0.01000000	          0.03309275	          0.04093488	          0.01000000	          0.04444462	          0.01619895	
          5.42000000	        -40.42928630	          3.05700784	        -15.27335614	         -6.52030464	         53.21359044	         -9.04949289	         16.32067494	         80.67492126	          3.05167878	          0.05513613	          0.14506742	          0.03268883	          0.03484620	          0.11949128	          0.15827452	          0.01000000	          0.01000000	          0.01000000	          0.01000000	          0.01129319	          0.12460019	          0.01000000	          0.19196477	          0.01000000	          0.01000000	          0.01000000	          0.01615211	          0.01000000	          0.01000000	          0.01000000	          0.04371235	          0.05115151	          0.01000000	          0.01000000	          0.01000000	          0.01000000	          0.01000000	          0.03362036	          0.04190850	          0.01000000	          0.04514547	          0.01679879	
          5.44000000	        -40.56420139	          3.09798927	        -15.26196128	         -6.51740357	         53.51495900	         -9.15372818	         16.73500959	         80.90928189	          2.78629321	          0.05573676	          0.14615718	          0.03273662	          0.03504153	          0.11989817	          0.16006929	          0.01000000	          0.01000000	          0.01000000	          0.01000000	          0.01170292	          0.12682999	          0.01000000	          0.19203185	          0.01000000	          0.01000000	          0.01000000	          0.01657597	          0.01000000	          0.01000000	          0.01000000	          0.04349138	          0.05112168	          0.01000000	          0.01000000	          0.01000000	          0.01000000	          0.01000000	          0.03411772	          0.04281125	          0.01000000	          0.04577778	          0.01743163	
          5.46000000	        -40.70037221	          3.13822912	        -15.25434598	         -6.51445447	         53.81362408	         -9.25791444	         17.15659101	         81.14522973	          2.55382015	          0.05627105	          0.14718729	          0.03270269	          0.03524842	          0.12021884	          0.16189205	          0.01000000	          0.01000000	          0.01000000	          0.01000000	          0.01219728	          0.12915489	          0.01000000	          0.19200830	          0.01000000	          0.01000000	          0.01000000	          0.01706475	          0.01000000	          0.01000000	          0.01000000	          0.04314157	          0.05101654	          0.01000000	          0.01000000	          0.01000000	          0.01000000	          0.01000000	          0.03463543	          0.04375915	          0.01000000	          0.04643651	          0.01815276	
          5.48000000	        -40.83731996	          3.17776666	        -15.24998077	         -6.51139499	         54.10931418	         -9.36183989	         17.58626192	         81.38079358	          2.35337225	          0.05674694	          0.14818974	          0.03259772	          0.03547605	          0.12049573	          0.16380322	          0.01000000	          0.01000000	          0.01000000	          0.01000000	          0.01279968	          0.13164913	          0.01000000	          0.19196967	          0.01000000	          0.01000000	          0.01000000	          0.01763892	          0.01000000	          0.01000000	          0.01000000	          0.04266887	          0.05084222	          0.01000000	          0.01000000	          0.01000000	          0.01000000	          0.01000000	          0.03519340	          0.04479213	          0.01000000	          0.04715667	          0.01898756	
